PathFileType	4	(X/Y/Z)	Patient4_TMGait_0pt2_01_left_05.trc.trc
DataRate	CameraRate	NumFrames	NumMarkers	Units	OrigDataRate	OrigDataStartFrame	OrigNumFrames
42.813455657492	42.813455657492	5	33	mm	42.813455657492	18	       141
Frame#	Time	Sacral			L.Shoulder			Chest			R.Shoulder			Neck			R.ASIS			L.ASIS			R.Thigh.Superior			R.Thigh.Lateral			R.Thigh.Inferior			R.Patella			L.Thigh.Superior			L.Thigh.Lateral			L.Thigh.Inferior			L.Patella			L.Shank.Superior			L.Shank.Lateral			L.Shank.Inferior			R.Shank.Superior			R.Shank.Lateral			R.Shank.Inferior			R.Heel			R.Midfoot.Superior			R.Midfoot.Lateral			R.Toe			L.Heel			L.Midfoot.Lateral			L.Midfoot.Superior			L.Toe			L.Elbow			L.Wrist			R.Elbow			R.Wrist			
		X1	Y1	Z1	X2	Y2	Z2	X3	Y3	Z3	X4	Y4	Z4	X5	Y5	Z5	X6	Y6	Z6	X7	Y7	Z7	X8	Y8	Z8	X9	Y9	Z9	X10	Y10	Z10	X11	Y11	Z11	X12	Y12	Z12	X13	Y13	Z13	X14	Y14	Z14	X15	Y15	Z15	X16	Y16	Z16	X17	Y17	Z17	X18	Y18	Z18	X19	Y19	Z19	X20	Y20	Z20	X21	Y21	Z21	X22	Y22	Z22	X23	Y23	Z23	X24	Y24	Z24	X25	Y25	Z25	X26	Y26	Z26	X27	Y27	Z27	X28	Y28	Z28	X29	Y29	Z29	X30	Y30	Z30	X31	Y31	Z31	X32	Y32	Z32	X33	Y33	Z33	

18	10.727071428571	767.864616255520	997.293242547636	609.167619141807	908.419631277065	1420.356537256187	390.716524997383	1039.967600256918	1356.393238730717	532.067363884129	990.588755485191	1436.539959268088	715.446833151987	924.549540086378	1486.078969133606	546.077959830028	1011.189604785643	934.853629034051	690.057168426020	958.407449395555	959.754454147844	421.257117081205	1030.309949755991	725.251882317012	647.467253224553	948.229186273120	615.750837150139	710.480080696520	1008.718804372622	563.639885696147	618.957803960126	1000.166170326760	471.025405306333	620.893883656231	1046.939476181956	778.117796343518	454.178931196961	1007.205331736683	650.675584116502	369.058695166056	1106.892090793009	592.635002611717	434.114423960285	1132.849954435160	519.782982724287	424.014638787549	1102.089589321407	445.147049686288	406.533222060508	1011.514263526750	338.098017990257	344.264028510863	1073.522589519995	219.042656029451	391.628552297853	954.769972118392	386.542142616797	627.492418847010	871.244625401243	292.913072829966	690.684298600872	888.992213765360	196.838442058833	621.173203433358	728.633393402993	44.650092587303	593.627537380203	901.329286902980	96.451050925647	629.065782204096	811.851805375841	37.375022958786	667.830632234417	1020.118395419473	40.639843790051	657.984046556728	953.814522441616	56.624008290519	415.044936671067	1027.986270690614	57.614810639845	335.604035668562	1110.240281289808	119.984518471547	362.611819467781	1236.767256344435	72.583973390658	332.075966056301	778.113697724240	1086.866990837904	315.950121766578	754.511305567640	833.737132837976	382.186847524065	1158.584714547663	1141.646854183131	835.064496178219	1407.092636585883	1136.632426095382	766.792605492226	
19	10.750428571429	767.862797536334	998.687208435153	607.438493671843	907.341353018810	1421.529114027297	388.774736426304	1040.161415828548	1356.942187402218	528.622969357802	992.881560566236	1437.225123547904	712.376716237207	925.093957265521	1486.892960956233	543.922916747668	1011.010197118786	934.922332860203	687.151698850176	957.416219335429	960.597342468815	418.419021139530	1027.070675216458	724.919799557912	645.295762795323	943.838671581489	616.540762031802	709.317871020430	1003.170237397781	563.404659710487	617.895877850280	993.536070044285	471.474589348554	620.277683446559	1043.185208302850	776.268233511073	449.816979824259	999.920912826284	649.439330936506	365.190781801106	1099.008183372555	590.353097358481	429.562244782925	1124.523027776046	519.843820426811	420.719860800094	1098.337866820510	445.426169619745	403.328184209713	1015.567817207757	332.160012243263	339.188924057796	1084.093015603583	216.710089945396	388.478981104852	948.689665019033	387.000516267242	627.084085322152	865.544196218643	293.279358616356	690.467403032222	883.713138553070	197.116179499017	621.087445545081	723.841225577085	44.504935007549	593.705970453932	896.550870759336	96.450005772294	629.108792111210	807.065564733845	37.295200730832	667.882252893424	1015.319134522443	40.688255218961	657.963517039718	973.031012400670	47.419082658865	409.482179130881	1049.769183821436	51.109237160875	332.083638695082	1128.291497760506	118.395921833404	360.838429869225	1258.819379647654	77.100244715552	334.501563087303	773.219669010862	1089.903082372077	315.446070883325	746.753263281924	837.605486289859	383.919902632734	1169.939432989921	1148.466489706796	828.414050027336	1416.110276580426	1161.073415728608	753.927467771776	
20	10.773785714286	768.120833858806	999.636076319302	605.074844364790	906.778632772782	1422.242206527625	386.273303815951	1040.590331487911	1357.182095393028	524.941996449460	994.902211241473	1437.574611610664	708.923086607104	925.757800634460	1487.353494590153	541.233252512753	1011.015536903999	934.787158155012	684.180665755950	957.057286259070	960.887156582925	415.423778776518	1024.378433421464	724.445099342884	643.095677412611	940.010762703981	617.091873432991	707.949160398191	998.387597258703	562.993423321826	616.731419614243	987.724675701194	471.643992567541	619.536534628164	1040.202252638198	773.967837642901	445.190768593081	993.215159902268	647.677329166864	361.361263082488	1091.962450452865	587.640815850645	424.862907499227	1116.563580677293	519.104579113067	417.380782409826	1094.362788659114	445.078818251674	400.134595027278	1018.253218598555	326.942770979094	334.718612420624	1091.988373031311	214.806178282743	385.723893408594	943.231674767093	387.196233630964	626.507472058573	860.279761308525	293.571654154568	690.121826978178	878.704942043906	197.265015268887	620.920495696381	719.060921706324	44.376273300340	593.749666361403	891.792155114840	96.422699173826	629.088052430245	802.289810456924	37.222526653118	667.909689260824	1010.532316522907	40.723730474898	657.946653673327	988.148366473380	40.841590381286	404.991008971035	1066.855353666983	46.314271440000	329.299447749489	1142.316355557378	117.107980191558	359.404441098194	1275.593163905053	80.318336572494	336.680672128489	769.955093394676	1091.986719025292	314.300821193636	740.852239098294	840.322162935990	384.382301696566	1180.045472461823	1154.615534418952	821.255090539392	1422.799246818267	1183.618041577270	741.110992908116	
21	10.797142857143	768.644554032636	1000.108796943711	602.100933043660	906.681514345204	1422.473742475830	383.192524711116	1041.237924047723	1357.117764979011	521.000131392627	996.638277571292	1437.588026378502	705.085578505571	926.504285708540	1487.452127468349	537.992753171178	1011.252485224086	934.456909580283	681.123612522463	957.320577012054	960.640069402629	412.261204513913	1022.324349332772	723.816810749472	640.834189048477	936.848162839025	617.382404785525	706.333177469637	994.483859485548	562.393478045139	615.414191716567	982.850321938013	471.502378009433	618.608162603198	1038.136804246154	771.394786942386	440.438322959205	987.453143693981	645.525802060840	357.693304119139	1086.116150193221	584.706280100734	420.187205867598	1109.402629627509	517.694044918609	414.090596436624	1090.494757317770	444.147553368084	397.028573365193	1019.633497150016	322.465409133099	330.968030269602	1097.233306419056	213.166687071463	383.424469334018	938.487734400914	387.111847442642	625.719529930332	855.519882972142	293.789574270155	689.618707846623	874.004618043769	197.278564805610	620.653701883178	714.301906181360	44.281459731763	593.761827820044	887.067111696900	96.376211284187	629.008222190232	797.532926812854	37.166982334905	667.913401602871	1005.765819273301	40.743696167749	657.936281712754	998.901545596955	36.601176811668	401.695025508317	1078.964095359160	42.950649043689	327.275697601387	1152.209718415335	115.886234624370	358.307103094953	1287.107499183219	81.913929401831	338.404968722045	768.232311316411	1093.089889665311	312.419455470260	736.732617828224	841.870071861267	383.513575442914	1188.876754097444	1159.973209809341	813.709687445403	1427.409961771101	1203.951402008956	728.492826503583	
22	10.820500000000	769.437457883274	1000.134311096512	598.559671202988	906.989988042235	1422.258885999856	379.536613662814	1042.087047882907	1356.798688419487	516.776760079940	998.105530127470	1437.311470999479	700.870246184729	927.304139524785	1487.226873181060	534.203693312428	1011.757196138745	933.968437472543	677.945262913537	958.171329829631	959.938939255735	408.913635744498	1020.938546231121	723.044995073868	638.474051292139	934.377563149782	617.430261640049	704.441657998505	991.475767990725	561.617788724351	613.905590700682	978.923832139156	471.060411514881	617.447481843380	1037.066629179589	768.748322457568	435.710976878814	982.942867894186	643.168435810250	354.257332435146	1081.719697129671	581.762738785245	415.691521148292	1103.400170157914	515.795076161999	410.922804745407	1087.047609806537	442.728497893097	394.067290835095	1019.916938616995	318.708311821502	327.938595463502	1100.071785662294	211.644744192996	381.581415149428	934.470318886320	386.771399008086	624.698182726510	851.273139989460	293.953684531759	688.942026539996	869.615123685508	197.174368924828	620.277769356783	709.572629351452	44.244825821848	593.747040148389	882.388515010418	96.321528202293	628.879046793587	792.802643144467	37.143791021241	667.895021601709	1001.025716643046	40.745119698868	657.934885611902	1005.399617777782	34.289480568904	399.561566369896	1086.252787939400	40.684936327005	325.946754374449	1158.202782797598	114.532392986842	357.506108246875	1293.778042544380	81.743177684098	339.559557338035	767.928516264909	1093.271868630728	309.724312025677	734.336597775594	842.316332863325	381.265840520552	1196.446813950549	1164.484085172919	805.907109983397	1430.240495891098	1221.872081824912	716.198130774286	
